<?xml version="1.0" encoding="utf-8"?>
<!-- Svg Vector Icons : http://www.onlinewebfonts.com/icon -->
<!DOCTYPE svg PUBLIC "-//W3C//DTD SVG 1.1//EN" "http://www.w3.org/Graphics/SVG/1.1/DTD/svg11.dtd">
<svg version="1.1" xmlns="http://www.w3.org/2000/svg" xmlns:xlink="http://www.w3.org/1999/xlink" x="0px" y="0px" viewBox="0 0 1000 1000" enable-background="new 0 0 1000 1000" xml:space="preserve">
<metadata> Svg Vector Icons : http://www.onlinewebfonts.com/icon </metadata>
<g><g transform="translate(0.000000,511.000000) scale(0.100000,-0.100000)"><path d="M680,4167.7c-238.6-74.9-411.6-226.9-519.2-458.4L100,3580.6V107.4v-3473.3l60.8-131c86.5-184.8,210.5-311.1,390.6-400l156.7-77.2H5000h4291.9l131,60.8c184.8,86.5,311.1,210.5,400,390.6l77.2,156.7V107.4v3473.3l-77.2,156.7c-88.9,180.1-215.2,304.1-400,390.6l-131,60.8l-4256.8,4.7C1561.8,4195.8,759.6,4191.1,680,4167.7z M1526.7,3524.5c208.2-121.6,259.6-421,100.6-601.1c-95.9-107.6-180.1-149.7-311.1-149.7c-222.2,0-409.3,184.8-409.3,404.6c0,91.2,70.2,247.9,135.7,304.1C1166.5,3594.7,1379.4,3611,1526.7,3524.5z M2663.4,3566.6c184.8-63.1,287.7-222.2,273.6-421c-16.4-240.9-187.1-385.9-430.4-367.2c-219.9,18.7-360.2,170.7-360.2,392.9c0,135.7,35.1,217.5,133.3,306.4C2392.1,3583,2523.1,3613.4,2663.4,3566.6z M3982.6,3524.5c208.2-121.6,259.6-421,100.6-601.1c-93.6-105.2-180.1-149.7-297-149.7c-233.9,0-423.3,182.4-423.3,402.3c0,93.6,70.2,247.9,135.6,306.4C3622.4,3594.7,3835.2,3611,3982.6,3524.5z M9322.3-559.2l-7-2701.4l-65.5-63.2l-63.2-65.5H5000H813.4l-63.2,65.5l-65.5,63.2l-7,2701.4L673,2142.2h4327h4327L9322.3-559.2z"/><path d="M2941.8,1225.4c-114.6-77.2-177.8-233.9-142.7-357.8c14-51.5,39.8-109.9,56.1-128.6c14-21,301.7-257.3,636.2-523.9c334.5-269,615.1-493.5,626.8-502.9c9.4-9.3-259.6-236.2-596.4-505.2c-336.8-271.3-631.5-512.2-654.9-535.6c-166-177.7-51.4-498.2,194.1-547.3c44.4-9.4,109.9-14.1,145-9.4C3280.9-1876,4913.5-587.3,4981.3-482c56.1,84.2,56.1,276,0,360.2c-21.1,32.7-411.7,357.8-867.7,722.7l-825.6,661.9l-133.3,9.4C3047,1279.2,3009.6,1272.1,2941.8,1225.4z"/><path d="M4871.4-1866.7c-95.9-42.1-194.1-161.4-212.8-259.6c-32.7-180.1,109.9-369.5,299.4-397.6c56.1-7,533.3-11.7,1064.2-7c1094.6,7,1043.1-2.4,1148.4,210.5c65.5,131,53.8,243.2-37.4,350.8c-114.6,135.7-121.6,135.7-1202.2,135.7C5161.4-1836.2,4925.2-1843.3,4871.4-1866.7z"/></g></g>
</svg>